<svg width="46" height="46" viewBox="0 0 46 46" fill="none" xmlns="http://www.w3.org/2000/svg">
<rect x="0.5" y="0.5" width="45" height="45" rx="22.5" fill="white" fill-opacity="0.05" stroke="black"/>
<g clip-path="url(#clip0_25_6465)">
<path d="M33.3175 13.493C31.7875 12.803 30.1475 12.293 28.4325 12.003C28.4172 12 28.4014 12.0019 28.3872 12.0084C28.3731 12.0148 28.3613 12.0255 28.3535 12.039C28.1435 12.408 27.9095 12.889 27.7455 13.269C25.9266 12.9972 24.0774 12.9972 22.2585 13.269C22.0758 12.8478 21.8698 12.4372 21.6415 12.039C21.6337 12.0253 21.622 12.0144 21.6079 12.0076C21.5938 12.0008 21.578 11.9985 21.5625 12.001C19.8485 12.291 18.2085 12.801 16.6775 13.492C16.6643 13.4975 16.6531 13.5069 16.6455 13.519C13.5335 18.094 12.6805 22.556 13.0995 26.962C13.1006 26.9727 13.104 26.9832 13.1093 26.9926C13.1147 27.0021 13.1219 27.0104 13.1305 27.017C14.9469 28.3394 16.9728 29.3468 19.1235 29.997C19.1385 30.0016 19.1545 30.0016 19.1695 29.9969C19.1845 29.9923 19.1977 29.9832 19.2075 29.9709C19.6695 29.3509 20.0815 28.6959 20.4335 28.0079C20.4545 27.9679 20.4345 27.9199 20.3925 27.9039C19.7465 27.6607 19.1206 27.3671 18.5205 27.0259C18.5097 27.0198 18.5006 27.0111 18.494 27.0005C18.4875 26.99 18.4836 26.978 18.4828 26.9656C18.482 26.9532 18.4843 26.9408 18.4895 26.9295C18.4947 26.9183 18.5026 26.9084 18.5125 26.9009C18.6385 26.8079 18.7645 26.711 18.8845 26.614C18.8953 26.6052 18.9083 26.5997 18.9221 26.5979C18.9358 26.5961 18.9498 26.5982 18.9625 26.604C22.8895 28.368 27.1425 28.368 31.0235 26.604C31.0362 26.5979 31.0503 26.5955 31.0643 26.5971C31.0782 26.5987 31.0915 26.6042 31.1025 26.6129C31.2225 26.7109 31.3475 26.8079 31.4745 26.9009C31.4845 26.9083 31.4925 26.918 31.4979 26.9292C31.5032 26.9403 31.5057 26.9527 31.5051 26.9651C31.5045 26.9774 31.5008 26.9895 31.4945 27.0001C31.4881 27.0107 31.4791 27.0196 31.4685 27.0259C30.8705 27.3699 30.2485 27.661 29.5955 27.903C29.5855 27.9066 29.5763 27.9123 29.5687 27.9198C29.561 27.9272 29.5551 27.9362 29.5512 27.9462C29.5473 27.9561 29.5456 27.9668 29.5462 27.9774C29.5467 27.9881 29.5496 27.9985 29.5545 28.0079C29.9145 28.695 30.3265 29.3489 30.7795 29.9699C30.7889 29.9827 30.802 29.9922 30.8171 29.9972C30.8321 30.0022 30.8483 30.0025 30.8635 29.9979C33.0178 29.3496 35.0471 28.3417 36.8655 27.017C36.8744 27.0107 36.8818 27.0027 36.8873 26.9934C36.8928 26.9841 36.8963 26.9737 36.8975 26.9629C37.3975 21.8689 36.0595 17.443 33.3485 13.521C33.3418 13.5082 33.3308 13.4983 33.3175 13.493ZM21.0205 24.2789C19.8385 24.2789 18.8635 23.2099 18.8635 21.8989C18.8635 20.5869 19.8195 19.5189 21.0205 19.5189C22.2305 19.5189 23.1965 20.5959 23.1775 21.8989C23.1775 23.2109 22.2215 24.2789 21.0205 24.2789ZM28.9955 24.2789C27.8125 24.2789 26.8385 23.2099 26.8385 21.8989C26.8385 20.5869 27.7935 19.5189 28.9955 19.5189C30.2055 19.5189 31.1715 20.5959 31.1525 21.8989C31.1525 23.2109 30.2065 24.2789 28.9955 24.2789Z" fill="black"/>
</g>
<defs>
<clipPath id="clip0_25_6465">
<rect width="24" height="24" fill="white" transform="translate(13 9)"/>
</clipPath>
</defs>
</svg>
