<svg width="46" height="46" viewBox="0 0 46 46" fill="none" xmlns="http://www.w3.org/2000/svg">
<rect x="0.5" y="0.5" width="45" height="45" rx="22.5" fill="white" fill-opacity="0.05" stroke="black"/>
<path d="M34.6435 15.9376C33.8085 16.3076 32.9115 16.5576 31.9685 16.6706C32.9415 16.0884 33.6694 15.172 34.0165 14.0926C33.1023 14.6356 32.1018 15.0178 31.0585 15.2226C30.3569 14.4734 29.4276 13.9769 28.4148 13.81C27.4021 13.6432 26.3626 13.8154 25.4577 14.2998C24.5529 14.7843 23.8333 15.5539 23.4107 16.4893C22.988 17.4246 22.886 18.4733 23.1205 19.4726C21.2682 19.3796 19.4561 18.8981 17.8019 18.0595C16.1477 17.2208 14.6883 16.0437 13.5185 14.6046C13.1185 15.2946 12.8885 16.0946 12.8885 16.9466C12.8881 17.7136 13.0769 18.4688 13.4384 19.1453C13.7998 19.8218 14.3227 20.3986 14.9605 20.8246C14.2208 20.801 13.4974 20.6011 12.8505 20.2416V20.3016C12.8504 21.3773 13.2225 22.4199 13.9037 23.2526C14.5848 24.0852 15.5331 24.6565 16.5875 24.8696C15.9013 25.0553 15.1818 25.0826 14.4835 24.9496C14.781 25.8752 15.3605 26.6846 16.1409 27.2645C16.9212 27.8444 17.8634 28.1657 18.8355 28.1836C17.1853 29.479 15.1474 30.1817 13.0495 30.1786C12.6779 30.1787 12.3066 30.157 11.9375 30.1136C14.067 31.4827 16.5458 32.2094 19.0775 32.2066C27.6475 32.2066 32.3325 25.1086 32.3325 18.9526C32.3325 18.7526 32.3275 18.5506 32.3185 18.3506C33.2298 17.6915 34.0164 16.8755 34.6415 15.9406L34.6435 15.9376Z" fill="black"/>
</svg>
